<?xml version="1.0" encoding="UTF-8" standalone="no"?>
<!DOCTYPE svg PUBLIC "-//W3C//DTD SVG 1.1//EN" "http://www.w3.org/Graphics/SVG/1.1/DTD/svg11.dtd">
<svg width="100%" height="100%" viewBox="0 0 1024 1024" version="1.1" xmlns="http://www.w3.org/2000/svg" xmlns:xlink="http://www.w3.org/1999/xlink" xml:space="preserve" xmlns:serif="http://www.serif.com/" style="fill-rule:evenodd;clip-rule:evenodd;stroke-linejoin:round;stroke-miterlimit:2;">
    <rect x="0" y="0" width="1024" height="1024" style="fill:rgb(52,128,255);"/>
    <g id="dns_24dp_E3E3E3_FILL0_wght400_GRAD0_opsz24.svg" transform="matrix(33.4332,0,0,33.4332,512,512)">
        <g transform="matrix(1,0,0,1,-12,-12)">
            <path d="M7.5,6C7.083,6 6.729,6.146 6.438,6.438C6.146,6.729 6,7.083 6,7.5C6,7.917 6.146,8.271 6.438,8.563C6.729,8.854 7.083,9 7.5,9C7.917,9 8.271,8.854 8.563,8.563C8.854,8.271 9,7.917 9,7.5C9,7.083 8.854,6.729 8.563,6.438C8.271,6.146 7.917,6 7.5,6ZM7.5,16C7.083,16 6.729,16.146 6.438,16.438C6.146,16.729 6,17.083 6,17.5C6,17.917 6.146,18.271 6.438,18.563C6.729,18.854 7.083,19 7.5,19C7.917,19 8.271,18.854 8.563,18.563C8.854,18.271 9,17.917 9,17.5C9,17.083 8.854,16.729 8.563,16.438C8.271,16.146 7.917,16 7.5,16ZM4,3L20,3C20.283,3 20.521,3.096 20.713,3.287C20.904,3.479 21,3.717 21,4L21,11C21,11.283 20.904,11.521 20.713,11.712C20.521,11.904 20.283,12 20,12L4,12C3.717,12 3.479,11.904 3.288,11.712C3.096,11.521 3,11.283 3,11L3,4C3,3.717 3.096,3.479 3.288,3.287C3.479,3.096 3.717,3 4,3ZM5,5L5,10L19,10L19,5L5,5ZM4,13L20,13C20.283,13 20.521,13.096 20.713,13.288C20.904,13.479 21,13.717 21,14L21,21C21,21.283 20.904,21.521 20.713,21.712C20.521,21.904 20.283,22 20,22L4,22C3.717,22 3.479,21.904 3.288,21.712C3.096,21.521 3,21.283 3,21L3,14C3,13.717 3.096,13.479 3.288,13.288C3.479,13.096 3.717,13 4,13ZM5,15L5,20L19,20L19,15L5,15ZM5,5L5,10L5,5ZM5,15L5,20L5,15Z" style="fill:rgb(248,248,248);fill-rule:nonzero;"/>
        </g>
    </g>
</svg>
